<svg width="71" height="26" viewBox="0 0 71 26" fill="none" xmlns="http://www.w3.org/2000/svg">
<path d="M55.9301 9.73679C55.9301 7.07086 55.9341 4.40493 55.9274 1.73901C55.9274 1.29022 55.8859 0.841433 55.8604 0.392646C55.843 0.0925619 55.8939 0.0255788 56.194 0.0215598C56.9965 0.0135218 57.8003 0.0135218 58.6027 0.0135218C62.264 0.00950282 65.9267 0.00548383 69.588 0.00146484C70.1922 0.00146484 70.2792 0.0925618 70.2685 0.687372C70.2498 1.7792 70.2364 2.87102 70.2163 3.96285C70.2069 4.48933 70.0113 4.68626 69.4955 4.6809C67.2583 4.65947 65.0211 4.63535 62.7838 4.61258C62.5909 4.61124 62.398 4.6032 62.2064 4.61258C61.9439 4.62732 61.8045 4.74789 61.7978 5.0118C61.7844 5.51417 61.7871 6.01789 61.8018 6.52026C61.8085 6.77613 61.9706 6.93288 62.2225 6.96905C62.3176 6.98244 62.4154 6.97575 62.5105 6.97575C64.4919 6.97842 66.4719 6.98244 68.4533 6.98512C68.5283 6.98512 68.6033 6.98512 68.6783 6.98512C69.0066 6.99182 69.0387 7.01995 69.04 7.36157C69.0441 8.62487 69.0467 9.88817 69.0454 11.1515C69.0454 11.5627 68.969 11.6351 68.5511 11.6284C66.5389 11.6003 64.5267 11.5694 62.5146 11.5413C61.9331 11.5333 61.8487 11.6177 61.826 12.1951C61.8072 12.676 61.7751 13.1569 61.7603 13.6379C61.7483 14.0317 61.8447 14.1403 62.2413 14.1496C62.9901 14.1671 63.7403 14.1684 64.4892 14.1724C66.3205 14.1818 68.1505 14.1885 69.9818 14.1965C70.0569 14.1965 70.1319 14.1965 70.2069 14.1979C70.5365 14.2059 70.5686 14.234 70.578 14.573C70.6128 15.9006 70.6463 17.2268 70.6785 18.5544C70.6865 18.9041 70.5766 19.0139 70.2257 19.0233C70.2042 19.0233 70.1828 19.0233 70.1613 19.0233C65.5904 19.0354 61.0181 19.0474 56.4472 19.0595C56.3722 19.0595 56.2958 19.0635 56.2222 19.0528C56.044 19.026 55.9596 18.9416 55.9381 18.7581C55.9261 18.663 55.9328 18.5652 55.9328 18.4687C55.9328 15.5563 55.9328 12.6439 55.9328 9.73143L55.9301 9.73679Z" fill="#F57141"/>
<path d="M8.13041 0.0105685C10.6141 0.0105685 13.0965 0.0105685 15.5803 0.0105685C15.6446 0.0105685 15.7089 0.00788913 15.7732 0.0105685C16.1202 0.0279841 16.2662 0.16329 16.2635 0.504904C16.2541 1.87538 16.2407 3.24451 16.222 4.61499C16.218 4.94321 16.0786 5.0678 15.7384 5.07315C15.1074 5.08119 14.4751 5.07985 13.8441 5.08521C13.1166 5.09057 12.3892 5.09995 11.6618 5.10799C11.2036 5.11334 11.0924 5.22186 11.0911 5.67868C11.087 8.06596 11.0857 10.4519 11.083 12.8392C11.0817 14.6906 11.0804 16.542 11.079 18.3948C11.079 18.4698 11.0817 18.5448 11.0777 18.6198C11.0603 18.9239 10.925 19.0619 10.6115 19.0646C10.0877 19.07 9.56251 19.0646 9.0387 19.0606C7.96831 19.0512 6.89792 19.0391 5.82887 19.0284C5.36669 19.0244 5.26086 18.9226 5.26086 18.4604C5.25416 15.5922 5.2488 12.724 5.24478 9.85441C5.2421 8.48394 5.24344 7.1148 5.2421 5.74433C5.2421 5.65859 5.24612 5.57285 5.23808 5.48711C5.21129 5.22588 5.07196 5.09459 4.78796 5.08789C4.38204 5.07985 3.97478 5.08521 3.56752 5.08789C2.56144 5.09727 1.55535 5.112 0.549262 5.11736C0.192911 5.1187 0.0509072 4.97402 0.0455485 4.60293C0.0281329 3.52316 0.0200949 2.44206 0.00937764 1.36095C0.00669831 1.0823 0 0.804989 0 0.526339C0.00267933 0.140516 0.135306 0.00387014 0.521129 0.00119081C1.47363 -0.00148851 2.42613 0.00119081 3.37863 0.00119081C4.96211 0.00119081 6.54693 0.00119081 8.13041 0.00119081V0.00788913V0.0105685Z" fill="#F57141"/>
<path d="M52.6096 1.33373C52.7328 1.45698 52.7382 1.60836 52.7382 1.75707C52.7409 3.49059 52.7449 5.22545 52.7409 6.95898C52.7368 8.78896 52.7208 10.6203 52.7154 12.4503C52.7127 13.3009 52.6243 14.1382 52.3617 14.9501C51.8902 16.4116 50.9792 17.5182 49.6543 18.2845C48.6227 18.882 47.5041 19.233 46.3252 19.3857C43.6968 19.7246 41.2211 19.1767 38.8459 18.0715C38.594 17.9536 38.3462 17.8277 38.101 17.695C37.6683 17.4593 37.6254 17.2262 37.947 16.8591C38.6744 16.0312 39.4045 15.2046 40.1346 14.378C40.4963 13.9681 40.8567 13.5595 41.2184 13.1496C41.268 13.0933 41.3149 13.033 41.3725 12.9861C41.5667 12.8267 41.7945 12.887 41.8923 13.1201C41.9043 13.1496 41.9097 13.1817 41.9164 13.2125C42.0396 13.806 42.4281 14.1664 42.9694 14.3673C43.804 14.6781 44.6627 14.725 45.5241 14.4959C46.2221 14.311 46.6615 13.8448 46.8597 13.1496C47.0138 12.6083 47.0192 12.047 47.0352 11.4937C47.0674 10.3175 47.0674 9.13995 47.0727 7.96238C47.0754 7.32069 47.2911 6.77276 47.7345 6.3079C48.5906 5.40899 49.4426 4.50472 50.296 3.60312C50.9363 2.92659 51.5767 2.25006 52.2184 1.57621C52.3269 1.46234 52.4274 1.33105 52.6122 1.33105L52.6096 1.33373Z" fill="#F57141"/>
<path d="M35.9897 5.96672C35.9897 4.16889 35.9897 2.3724 35.9897 0.574575C35.9897 0.488837 35.9857 0.403099 35.9911 0.31736C36.0045 0.101675 36.05 0.0547864 36.2577 0.0373708C36.3112 0.0333518 36.3648 0.0360311 36.4184 0.0360311C38.0341 0.0400501 39.6497 0.0440691 41.2653 0.0480881C41.6619 0.0480881 41.7047 0.092297 41.7061 0.492856C41.7128 2.78234 41.7141 5.07182 41.7275 7.36131C41.7275 7.57431 41.6377 7.6922 41.4837 7.81009C40.0275 8.91799 38.5753 10.0299 37.1217 11.1405C36.8672 11.3347 36.6127 11.5317 36.3568 11.7259C36.2737 11.7889 36.18 11.892 36.0768 11.8036C36.0192 11.7541 35.9951 11.6375 35.9937 11.5504C35.9884 10.5658 35.9897 9.58247 35.9897 8.59781C35.9897 7.72033 35.9897 6.84286 35.9897 5.96538V5.96672Z" fill="#F57141"/>
<path d="M17.7832 9.49553C17.7832 6.54157 17.7832 3.58762 17.7832 0.63366C17.7832 0.0656436 17.818 0.0348313 18.3834 0.036171C20.9194 0.0415296 23.4567 0.0442089 25.9927 0.0468883C27.0644 0.0468883 28.1321 0.109852 29.1837 0.324198C31.7304 0.839969 33.4104 2.61502 33.7962 5.20057C33.9677 6.35268 33.9476 7.50479 33.6997 8.64752C33.2416 10.7602 31.9676 12.1561 29.9514 12.8943C29.3565 13.1126 28.751 13.175 28.1053 13.171C27.1006 13.1656 26.0945 13.1562 25.0884 13.171C24.9236 13.1737 24.7842 13.171 24.594 13.171C24.1144 13.171 23.7755 13.2546 23.7621 13.7315C23.7259 14.9828 23.7099 16.234 23.6911 17.4866C23.6858 17.8389 23.7099 18.1926 23.7125 18.5463C23.7152 18.9442 23.5719 19.0929 23.1767 19.0929C21.5718 19.0942 19.9655 19.0942 18.3606 19.0902C17.9547 19.0902 17.802 18.9348 17.8006 18.5222C17.7953 17.0445 17.7953 15.5682 17.7953 14.0906C17.7953 12.5607 17.7953 11.0294 17.7953 9.49955H17.7832V9.49553ZM23.7219 6.65946C23.7139 6.65946 23.7072 6.65946 23.6992 6.65946C23.6992 7.09753 23.6978 7.53694 23.6992 7.97501C23.7005 8.36351 23.8331 8.50954 24.2096 8.5149C24.9799 8.52561 25.7515 8.54035 26.5218 8.52695C27.5065 8.51088 28.2674 7.77004 28.3049 6.82022C28.3464 5.74179 27.694 4.93666 26.6558 4.86699C25.8346 4.81207 25.0093 4.82546 24.1855 4.82145C23.876 4.82011 23.7286 4.98622 23.7246 5.31176C23.7179 5.76055 23.7233 6.21068 23.7233 6.6608L23.7219 6.65946Z" fill="#F57141"/>
<path fill-rule="evenodd" clip-rule="evenodd" d="M25.0266 13.68C24.987 13.6796 24.9467 13.6791 24.9062 13.6791V13.7233C24.9245 13.765 24.9395 13.8018 24.9531 13.835C24.9783 13.8969 24.9985 13.9464 25.0255 13.9926C25.444 14.6988 25.8632 15.4045 26.2823 16.1101C26.9016 17.1528 27.5207 18.1953 28.1375 19.2387C28.2782 19.4758 28.4671 19.5803 28.7417 19.5803C30.6159 19.583 32.4887 19.591 34.3629 19.6031C34.6148 19.6044 34.809 19.5267 34.9819 19.3338C35.534 18.7156 36.0904 18.1009 36.6467 17.4864C36.9811 17.1169 37.3156 16.7474 37.6491 16.3772C42.3634 11.1418 47.1272 5.95328 51.9527 0.819694C51.9626 0.809255 51.9726 0.798913 51.9827 0.788585C52.0253 0.74457 52.0678 0.700809 52.1014 0.650897C52.1965 0.511572 52.1791 0.395021 52.0585 0.27981C51.9299 0.157901 51.8375 0.149863 51.6915 0.257036C51.6242 0.305937 51.5598 0.359392 51.4953 0.412948C51.4608 0.441554 51.4264 0.470189 51.3914 0.498175C50.4405 1.25344 49.4903 2.00979 48.54 2.76621C46.3331 4.52284 44.1258 6.27983 41.9092 8.02439C40.4203 9.19706 38.9211 10.3563 37.4217 11.5155C36.5077 12.2223 35.5936 12.9291 34.6818 13.6389C34.3179 13.9224 33.9625 14.2175 33.607 14.5127C33.4351 14.6555 33.2632 14.7982 33.0902 14.9397C33.0657 14.9599 33.0415 14.9801 33.0173 15.0004C32.9675 15.0421 32.9179 15.0836 32.8665 15.1233C32.4887 15.4153 32.1136 15.3604 31.8551 14.9625C31.5992 14.5673 31.3514 14.1667 31.1049 13.7648C31.0345 13.6374 30.9012 13.6459 30.7233 13.6572C30.6676 13.6607 30.6075 13.6645 30.5436 13.6645C30.5212 13.6645 30.501 13.6642 30.4807 13.6639C30.4403 13.6633 30.3998 13.6627 30.3426 13.6645C28.668 13.6645 26.9265 13.6645 25.2452 13.6791C25.1779 13.6818 25.1036 13.6809 25.0266 13.68Z" fill="url(#paint0_linear_1089_503)"/>
<path d="M30.6159 25.2057H30.131C30.0533 24.9136 30.1028 24.6149 30.0948 24.3215C30.0854 24.012 30.0921 23.7012 30.0921 23.3904V22.5089L30.0238 22.5063C29.8992 23.3985 29.7733 24.2907 29.6447 25.203C29.5415 25.2084 29.4504 25.2124 29.3339 25.2177C29.2039 24.2934 29.0767 23.3878 28.9494 22.4821C28.9293 22.4821 28.9092 22.4835 28.8904 22.4848V25.2003H28.3398V20.9509H29.0968C29.2173 21.7038 29.3379 22.4567 29.4585 23.2082C29.4799 23.2082 29.5013 23.2069 29.5214 23.2056C29.6407 22.4553 29.7599 21.7038 29.8805 20.9429H30.5985C30.6749 21.176 30.691 24.8346 30.6159 25.2043V25.2057Z" fill="#F57141"/>
<path d="M65.8172 25.2125H65.3176C65.0898 24.4275 64.8621 23.6438 64.6343 22.8601C64.6129 22.8627 64.5901 22.8668 64.5687 22.8694V25.2018H64.0234V20.951H64.5821C64.7844 21.7147 64.9907 22.4943 65.1983 23.274C65.2198 23.2727 65.2412 23.2713 65.2613 23.2687V20.9497H65.8172V25.2125Z" fill="#F57141"/>
<path d="M42.6797 20.9497H43.2423C43.3415 21.3248 43.446 21.7133 43.5491 22.1032C43.6523 22.4943 43.7554 22.8869 43.8559 23.2713C43.8881 23.2727 43.9001 23.2754 43.9095 23.2727C43.9162 23.27 43.9256 23.2593 43.9256 23.2526C43.9336 22.5051 43.9403 21.7562 43.947 21.0087C43.947 20.9993 43.9537 20.9886 43.9671 20.9537H44.4722V25.1991H43.9778C43.7528 24.4261 43.5264 23.6451 43.2986 22.8627C43.2785 22.8668 43.2571 22.8708 43.237 22.8748V25.1951H42.681V20.9497H42.6797Z" fill="#F57141"/>
<path d="M52.2509 20.9458H52.7721C52.9797 21.7282 53.1847 22.5065 53.391 23.2835C53.4164 23.2808 53.4405 23.2782 53.466 23.2755V20.9458H54.0005V25.1979H53.5049C53.2865 24.4437 53.0614 23.672 52.8377 22.9017C52.8122 22.9044 52.7881 22.9071 52.7627 22.9097V25.2059H52.2536C52.1826 24.9568 52.1759 21.2553 52.2496 20.9458H52.2509Z" fill="#F57141"/>
<path d="M33.4395 20.9121C33.7744 20.9335 34.0745 20.9362 34.3678 20.9764C34.7175 21.0246 34.9559 21.239 35.0537 21.5739C35.2078 22.1084 35.2158 22.6363 34.8139 23.0824C34.7041 23.2043 34.7389 23.3195 34.763 23.4401C34.8716 23.9732 34.9868 24.5064 35.0993 25.0396C35.11 25.0892 35.114 25.1414 35.1234 25.2057H34.5273C34.404 24.6042 34.2848 24.0148 34.1642 23.4253C33.9927 23.6102 34.0557 23.8111 34.0463 24C34.0356 24.1916 34.0436 24.3845 34.0436 24.5774V25.2017H33.4408V20.9135L33.4395 20.9121ZM34.053 22.8238C34.2901 22.8372 34.4402 22.7327 34.467 22.5532C34.5018 22.3147 34.5031 22.0642 34.467 21.8271C34.4348 21.6221 34.3089 21.5726 34.0544 21.5913V22.8251L34.053 22.8238Z" fill="#F57141"/>
<path d="M50.0735 23.0573C50.0735 22.6835 50.0695 22.3097 50.0748 21.9346C50.0762 21.7966 50.0829 21.6546 50.1137 21.5207C50.2035 21.1349 50.5062 20.9018 50.9001 20.9004C51.3047 20.8977 51.5994 21.1161 51.6985 21.5046C51.7293 21.6279 51.7414 21.7578 51.7427 21.8851C51.7467 22.6862 51.7508 23.4886 51.74 24.2898C51.7374 24.4666 51.6999 24.6541 51.6315 24.8162C51.4962 25.1351 51.2216 25.2771 50.8853 25.2691C50.5491 25.2597 50.2838 25.1003 50.1673 24.7747C50.107 24.6073 50.0829 24.421 50.0775 24.2429C50.0641 23.8477 50.0735 23.4525 50.0735 23.0573ZM51.1318 23.0881C51.1318 22.6835 51.1345 22.2776 51.1318 21.873C51.1292 21.6212 51.0622 21.5046 50.9269 21.4925C50.7742 21.4791 50.6871 21.6024 50.6857 21.8703C50.6817 22.6808 50.6817 23.4913 50.6857 24.3018C50.6857 24.5537 50.7621 24.6595 50.9095 24.6622C51.0582 24.6649 51.1278 24.5617 51.1305 24.3045C51.1345 23.8999 51.1305 23.494 51.1305 23.0894L51.1318 23.0881Z" fill="#F57141"/>
<path d="M56.5097 20.939H57.0911C57.0965 21.0595 57.1072 21.1721 57.1072 21.2846C57.1072 22.2478 57.1072 23.2097 57.1072 24.1729C57.1072 24.2694 57.1045 24.3658 57.1206 24.4609C57.1394 24.5748 57.201 24.6605 57.3336 24.6579C57.4488 24.6552 57.5104 24.5828 57.5252 24.4784C57.5413 24.3631 57.552 24.2453 57.552 24.1274C57.5547 23.1963 57.552 22.2666 57.552 21.3355C57.552 21.219 57.552 21.1011 57.552 20.9564H58.124C58.1334 21.0234 58.1562 21.1037 58.1562 21.1841C58.1588 22.221 58.1602 23.2593 58.1548 24.2962C58.1548 24.4435 58.1334 24.5976 58.0852 24.7356C57.9659 25.0825 57.6511 25.2862 57.2948 25.2728C56.9371 25.2594 56.641 25.0303 56.5432 24.6793C56.5111 24.5668 56.491 24.4475 56.491 24.3323C56.4869 23.2633 56.4883 22.1929 56.4896 21.1238C56.4896 21.0729 56.5017 21.0207 56.5111 20.9403L56.5097 20.939Z" fill="#F57141"/>
<path d="M36.13 25.2069H35.5352V20.9495H36.1166C36.1246 21.4157 36.134 21.8765 36.142 22.336C36.1635 22.3373 36.1836 22.3387 36.205 22.3414C36.3657 21.8792 36.5265 21.417 36.6913 20.9468H37.3062C37.1843 21.2509 37.0945 21.5362 36.9592 21.7975C36.7717 22.1592 36.7542 22.5088 36.8614 22.904C37.049 23.5953 37.187 24.2986 37.345 24.9979C37.3584 25.0595 37.3665 25.1225 37.3812 25.2042H36.769C36.6337 24.588 36.497 23.9664 36.3577 23.3341C36.1742 23.5256 36.134 23.6221 36.1326 23.894C36.13 24.3214 36.1326 24.7487 36.1326 25.2056L36.13 25.2069Z" fill="#F57141"/>
<path d="M46.6512 22.4462H46.0108C46.0068 22.2453 46.0041 22.047 45.9974 21.8487C45.9907 21.6062 45.9345 21.5058 45.8059 21.4937C45.6598 21.4803 45.5687 21.5928 45.5674 21.842C45.5607 22.6873 45.5647 23.5327 45.5647 24.378C45.5647 24.3887 45.5647 24.3994 45.5661 24.4101C45.5888 24.6258 45.6505 24.7102 45.7831 24.7116C45.9197 24.7116 45.9854 24.6285 45.9934 24.4115C46.0015 24.1878 45.9948 23.9627 45.9948 23.7189C45.9197 23.6921 45.8447 23.6653 45.759 23.6345V23.116H46.6056V25.1925C46.4181 25.2501 46.256 25.2568 46.1796 25.0706C46.0162 25.1416 45.8782 25.2314 45.7268 25.2622C45.4575 25.3171 45.1682 25.147 45.057 24.8723C44.998 24.7277 44.9619 24.5629 44.9605 24.4061C44.9512 23.5287 44.9512 22.6512 44.9579 21.7737C44.9619 21.2231 45.3249 20.8748 45.8434 20.9002C46.193 20.9176 46.4784 21.1226 46.5574 21.4843C46.6217 21.7817 46.619 22.0952 46.6485 22.4449L46.6512 22.4462Z" fill="#F57141"/>
<path d="M62.2479 20.9443H63.0048C63.2191 22.363 63.4322 23.7724 63.6492 25.2058H63.0624C63.0195 24.9231 62.978 24.6512 62.9325 24.3605H62.3269C62.2814 24.6391 62.2345 24.9191 62.1876 25.2085H61.6035C61.8192 23.7777 62.0335 22.3671 62.2479 20.9457V20.9443ZM62.8481 23.6706C62.7838 23.1534 62.7221 22.6591 62.6592 22.1634C62.6364 22.1634 62.6136 22.1648 62.5908 22.1661C62.5306 22.6604 62.4703 23.1548 62.4073 23.6706H62.8481Z" fill="#F57141"/>
<path d="M33.0679 25.2086H32.4851C32.4409 24.934 32.3954 24.6553 32.3471 24.3593H31.7443C31.6974 24.6419 31.6519 24.9219 31.605 25.2073H31.0195C31.2366 23.7752 31.4496 22.3632 31.6652 20.9458H32.4222C32.6365 22.3618 32.8495 23.7645 33.0679 25.2086ZM32.0779 22.1729C32.0538 22.1716 32.031 22.1689 32.0069 22.1676C31.9479 22.6632 31.889 23.1576 31.8274 23.672H32.2641C32.2011 23.1589 32.1395 22.6659 32.0792 22.1729H32.0779Z" fill="#F57141"/>
<path d="M67.944 22.3777H67.3854C67.3854 22.2129 67.3907 22.0562 67.384 21.8994C67.38 21.8057 67.3773 21.6998 67.3345 21.6221C67.301 21.5618 67.2032 21.5002 67.1375 21.5029C67.0706 21.5056 66.9835 21.5739 66.9486 21.6369C66.9111 21.7052 66.9125 21.8016 66.9125 21.886C66.9098 22.6764 66.9111 23.4682 66.9125 24.2586C66.9125 24.3323 66.9031 24.4207 66.9379 24.4783C66.9808 24.5506 67.0558 24.6283 67.1335 24.6498C67.2514 24.6833 67.3465 24.6042 67.3639 24.485C67.3854 24.3376 67.38 24.1876 67.3867 24.0389C67.3907 23.9558 67.4001 23.8741 67.4068 23.7763H67.94C67.9668 24.0871 67.9976 24.3805 67.9078 24.6725C67.79 25.0543 67.4765 25.2848 67.0973 25.2741C66.7129 25.262 66.4195 25.0195 66.3257 24.627C66.3016 24.5238 66.2936 24.4153 66.2936 24.3095C66.2909 23.4869 66.2895 22.6644 66.2936 21.8405C66.2936 21.7146 66.3136 21.5833 66.3512 21.4641C66.469 21.093 66.7343 20.9041 67.1148 20.9014C67.4872 20.8987 67.7685 21.093 67.8944 21.4493C68.0003 21.7481 67.9655 22.0548 67.944 22.3777Z" fill="#F57141"/>
<path d="M49.073 23.7766H49.6597C49.6437 24.07 49.6597 24.3487 49.6075 24.6139C49.5258 25.0346 49.1801 25.2878 48.7796 25.2717C48.3629 25.2556 48.0521 24.9636 47.9905 24.5255C47.9798 24.4518 47.9811 24.3768 47.9811 24.3018C47.9811 23.49 47.9785 22.6768 47.9838 21.8649C47.9838 21.7283 47.9999 21.5863 48.0414 21.4564C48.158 21.0893 48.4313 20.9004 48.8104 20.9004C49.1801 20.9004 49.4869 21.0946 49.578 21.4577C49.649 21.7417 49.645 22.0445 49.6772 22.3687H49.073C49.073 22.2092 49.0783 22.0525 49.0703 21.8958C49.0663 21.802 49.0622 21.6962 49.018 21.6184C48.9832 21.5582 48.8854 21.4992 48.8198 21.5032C48.7541 21.5073 48.6657 21.5769 48.6349 21.6399C48.596 21.7216 48.596 21.8274 48.596 21.9226C48.5934 22.6929 48.5934 23.4618 48.596 24.2321C48.596 24.3165 48.6054 24.4036 48.6228 24.4867C48.6443 24.5912 48.7099 24.6541 48.8238 24.6581C48.9497 24.6622 49.0274 24.5979 49.0555 24.48C49.073 24.4076 49.073 24.3326 49.0743 24.2576C49.077 24.1089 49.0743 23.9602 49.0743 23.7766H49.073Z" fill="#F57141"/>
<path d="M54.375 24.0591C54.4808 24.0363 54.5411 24.0136 54.6027 24.0109C54.718 24.0042 54.8332 24.0095 54.9604 24.0095C54.9886 24.1703 55.01 24.3257 55.0435 24.4798C55.0703 24.603 55.1346 24.7035 55.2779 24.6995C55.4226 24.6968 55.4762 24.5923 55.503 24.469C55.5566 24.2172 55.5204 23.976 55.3784 23.7617C55.2029 23.4938 55.014 23.2339 54.8358 22.9673C54.6443 22.6806 54.4741 22.3805 54.4554 22.0282C54.446 21.8594 54.4554 21.6839 54.4942 21.5204C54.5907 21.1212 54.8867 20.9002 55.2819 20.9029C55.6986 20.9055 55.9625 21.1051 56.0697 21.5164C56.1072 21.6598 56.1206 21.8098 56.1514 21.9987C55.9491 22.0268 55.7656 22.0523 55.5566 22.0804C55.5311 21.9344 55.5164 21.8098 55.4883 21.6892C55.4601 21.5687 55.4039 21.4575 55.2592 21.4615C55.1118 21.4655 55.0703 21.5847 55.0555 21.7067C55.0274 21.9357 55.0582 22.1568 55.1855 22.3537C55.3195 22.56 55.4601 22.761 55.5954 22.9673C55.724 23.1642 55.862 23.3558 55.9746 23.5621C56.1809 23.9412 56.1849 24.3431 56.0429 24.7423C55.9156 25.0987 55.6035 25.2902 55.215 25.2742C54.8238 25.2581 54.5733 25.0732 54.4715 24.6901C54.4179 24.4891 54.4072 24.2775 54.375 24.0604V24.0591Z" fill="#F57141"/>
<path d="M37.726 20.9482H39.1192V21.5591H38.3502C38.306 21.9543 38.3301 22.3214 38.3328 22.7166C38.5244 22.7313 38.6999 22.7461 38.8955 22.7608V23.3462C38.728 23.3543 38.5525 23.3623 38.3516 23.3717V24.5747H39.1071V25.2043H37.7246V20.9482H37.726Z" fill="#F57141"/>
<path d="M69.5713 20.9482H70.1581C70.1019 21.1787 70.0536 21.385 70 21.5886C69.8621 22.1164 69.7174 22.6416 69.5874 23.1721C69.5472 23.3355 69.5312 23.5097 69.5285 23.6785C69.5204 24.1795 69.5258 24.6805 69.5258 25.2017H68.943C68.935 25.1253 68.9109 25.0436 68.9189 24.9645C69.0422 23.7227 68.722 22.5465 68.3884 21.3729C68.3509 21.2403 68.3214 21.1063 68.2812 20.9496H68.8707C68.9819 21.4238 69.0917 21.9007 69.2204 22.45C69.3476 21.9034 69.4602 21.4278 69.5713 20.9496V20.9482Z" fill="#F57141"/>
<path d="M40.6692 25.2073H40.0463V21.5862C39.8373 21.5728 39.6604 21.5621 39.4648 21.5487V20.9512H41.2372V21.5473C41.0523 21.5594 40.8755 21.5701 40.6692 21.5835V25.2073Z" fill="#F57141"/>
<path d="M61.6935 20.9482V21.5511C61.506 21.5605 61.3372 21.5685 61.1242 21.5792V25.2043H60.52V21.5899C60.307 21.5739 60.1221 21.5605 59.9238 21.5457V20.9482H61.6935Z" fill="#F57141"/>
<path d="M58.6641 25.2228V20.9453C58.7739 20.9386 58.8677 20.9305 58.9601 20.9292C59.0445 20.9292 59.1289 20.9359 59.2562 20.9426V24.6427H60.0774V25.2121C59.8523 25.2148 59.6219 25.2201 59.3928 25.2215C59.1597 25.2228 58.9253 25.2215 58.6641 25.2215V25.2228Z" fill="#F57141"/>
<path d="M41.5886 20.9458H42.1366C42.2062 21.1816 42.2303 24.595 42.1674 25.1952H41.6128C41.5538 24.9728 41.5297 21.5674 41.5886 20.9458Z" fill="#F57141"/>
<defs>
<linearGradient id="paint0_linear_1089_503" x1="38.5343" y1="0.182129" x2="38.5343" y2="19.6031" gradientUnits="userSpaceOnUse">
<stop stop-color="#F57141" stop-opacity="0"/>
<stop offset="1" stop-color="#F57141"/>
</linearGradient>
</defs>
</svg>
